<svg width="144" height="31" viewBox="0 0 144 31" fill="none" xmlns="http://www.w3.org/2000/svg">
<path d="M9.38243 6.96428C11.5534 6.96428 13.4019 7.79182 14.9281 9.44691C16.4757 11.102 17.2495 13.1118 17.2495 15.4762C17.2495 17.8836 16.4757 19.9041 14.9281 21.5377C13.4234 23.1713 11.5749 23.9881 9.38243 23.9881C7.12549 23.9881 5.38442 23.2035 4.15922 21.6344V23.5367H0V0.96726H4.15922V9.31794C5.38442 7.74883 7.12549 6.96428 9.38243 6.96428ZM5.41666 18.7649C6.25495 19.6031 7.31894 20.0223 8.60862 20.0223C9.8983 20.0223 10.9623 19.6031 11.8006 18.7649C12.6604 17.9051 13.0903 16.8088 13.0903 15.4762C13.0903 14.1435 12.6604 13.058 11.8006 12.2197C10.9623 11.3599 9.8983 10.93 8.60862 10.93C7.31894 10.93 6.25495 11.3599 5.41666 12.2197C4.57837 13.058 4.15922 14.1435 4.15922 15.4762C4.15922 16.8088 4.57837 17.9051 5.41666 18.7649Z" fill="white"/>
<path d="M24.342 7.41566V10.1885C24.7074 9.17823 25.3307 8.41517 26.212 7.89929C27.0933 7.36193 28.1035 7.09324 29.2428 7.09324V11.7361C27.9746 11.5641 26.8354 11.8221 25.8251 12.5099C24.8363 13.1762 24.342 14.2832 24.342 15.8308V23.5367H20.1827V7.41566H24.342Z" fill="white"/>
<path d="M43.329 9.31794V7.41566H47.4882V23.5367H43.329V21.6344C42.0823 23.2035 40.3305 23.9881 38.0735 23.9881C35.9241 23.9881 34.0755 23.1713 32.5279 21.5377C31.0018 19.8826 30.2387 17.8621 30.2387 15.4762C30.2387 13.1118 31.0018 11.102 32.5279 9.44691C34.0755 7.79182 35.9241 6.96428 38.0735 6.96428C40.3305 6.96428 42.0823 7.74883 43.329 9.31794ZM35.6554 18.7649C36.4937 19.6031 37.5577 20.0223 38.8473 20.0223C40.137 20.0223 41.201 19.6031 42.0393 18.7649C42.8991 17.9051 43.329 16.8088 43.329 15.4762C43.329 14.1435 42.8991 13.058 42.0393 12.2197C41.201 11.3599 40.137 10.93 38.8473 10.93C37.5577 10.93 36.4937 11.3599 35.6554 12.2197C34.8171 13.058 34.3979 14.1435 34.3979 15.4762C34.3979 16.8088 34.8171 17.9051 35.6554 18.7649Z" fill="white"/>
<path d="M60.223 6.96428C62.0071 6.96428 63.458 7.55538 64.5757 8.73759C65.7364 9.94129 66.3168 11.5749 66.3168 13.6384V23.5367H62.1576V14.1542C62.1576 13.101 61.8674 12.2842 61.287 11.7039C60.7282 11.1235 59.9544 10.8333 58.9656 10.8333C57.8694 10.8333 56.9988 11.1772 56.354 11.8651C55.7307 12.5314 55.419 13.5202 55.419 14.8313V23.5367H51.2598V7.41566H55.419V9.22122C56.4077 7.71659 58.0091 6.96428 60.223 6.96428Z" fill="white"/>
<path d="M82.0879 9.31794V0.96726H86.2471V23.5367H82.0879V21.6344C80.8627 23.2035 79.1217 23.9881 76.8647 23.9881C74.6938 23.9881 72.8345 23.1713 71.2868 21.5377C69.7607 19.8826 68.9977 17.8621 68.9977 15.4762C68.9977 13.1118 69.7607 11.102 71.2868 9.44691C72.8345 7.79182 74.6938 6.96428 76.8647 6.96428C79.1217 6.96428 80.8627 7.74883 82.0879 9.31794ZM74.4143 18.7649C75.2956 19.6031 76.3703 20.0223 77.6385 20.0223C78.9282 20.0223 79.9922 19.6031 80.8305 18.7649C81.6688 17.9051 82.0879 16.8088 82.0879 15.4762C82.0879 14.1435 81.6688 13.058 80.8305 12.2197C79.9922 11.3599 78.9282 10.93 77.6385 10.93C76.3488 10.93 75.2741 11.3599 74.4143 12.2197C73.576 13.058 73.1569 14.1435 73.1569 15.4762C73.1569 16.8088 73.576 17.9051 74.4143 18.7649Z" fill="white"/>
<path d="M105.721 17.185H93.5653C94.1027 19.2055 95.6181 20.2157 98.1115 20.2157C99.7021 20.2157 100.906 19.6784 101.723 18.6036L105.076 20.5382C103.485 22.8381 101.142 23.9881 98.047 23.9881C95.3816 23.9881 93.2429 23.182 91.6308 21.5699C90.0187 19.9578 89.2127 17.9266 89.2127 15.4762C89.2127 13.0688 90.008 11.0483 91.5986 9.41467C93.1677 7.78107 95.2097 6.96428 97.7245 6.96428C100.11 6.96428 102.056 7.78107 103.56 9.41467C105.108 11.0483 105.882 13.0688 105.882 15.4762C105.882 15.9276 105.828 16.4972 105.721 17.185ZM93.5008 13.9608H101.723C101.486 12.9076 101.002 12.1015 100.272 11.5426C99.5623 10.9838 98.7133 10.7043 97.7245 10.7043C96.6068 10.7043 95.6825 10.9945 94.9517 11.5749C94.2209 12.1337 93.7373 12.929 93.5008 13.9608Z" fill="white"/>
<path d="M112.945 7.41566V10.1885C113.31 9.17823 113.933 8.41517 114.815 7.89929C115.696 7.36193 116.706 7.09324 117.845 7.09324V11.7361C116.577 11.5641 115.438 11.8221 114.428 12.5099C113.439 13.1762 112.945 14.2832 112.945 15.8308V23.5367H108.785V7.41566H112.945Z" fill="white"/>
<path d="M124.437 23.5367H120.278V11.7683V0H124.437V23.5367Z" fill="#326BFF"/>
<path d="M135.176 18.249L138.755 7.41566H143.204L137.336 23.5367C136.498 25.8581 135.38 27.5347 133.983 28.5664C132.607 29.6197 130.888 30.0925 128.824 29.9851C128.824 29.9851 70.2353 30.3388 69.7059 29.8235C69.1765 29.3082 69.1765 28.9553 69.7059 28.4118L128.824 26.116C129.92 26.1375 130.802 25.9011 131.468 25.4067C132.134 24.9123 132.661 24.117 133.048 23.0208L126.438 7.41566H130.984L135.176 18.249Z" fill="#326BFF"/>
</svg>
