<svg width="148" height="128" viewBox="0 0 148 128" fill="none" xmlns="http://www.w3.org/2000/svg">
<g clip-path="url(#clip0_1_190)">
<path d="M24.1415 15.0796C24.4963 18.9831 25.3835 25.0867 25.9513 27.3224C28.1515 36.194 31.913 43.3623 37.3779 49.2176C40.3233 52.3404 44.0494 55.5696 43.0558 54.1147C40.5008 50.4241 38.8684 42.759 38.8684 34.3842C38.8684 32.397 38.7264 31.7227 38.1941 31.1549C37.8038 30.7291 37.5909 30.3033 37.6973 30.1968C37.8393 30.0903 37.6618 29.9839 37.3425 29.9839C37.0231 29.9839 36.7392 29.771 36.7392 29.4871C36.7392 29.2032 36.1004 28.316 35.3197 27.4998C34.539 26.6836 33.9003 25.7965 33.9003 25.5126C33.9003 25.2287 33.6519 25.0158 33.368 25.0158C33.0841 25.0158 32.8712 24.8738 32.9066 24.6964C32.9776 24.519 32.4808 23.8092 31.8775 23.135C31.2388 22.4253 30.7065 21.751 30.7065 21.6446C30.7065 21.4671 29.3225 19.7993 28.1515 18.5572C27.7966 18.2024 27.5127 17.7765 27.5127 17.6346C27.5127 17.4571 27.1933 17.0313 26.803 16.6764C26.4126 16.3216 26.0932 15.8957 26.0932 15.7538C26.0932 15.5764 25.8448 15.1505 25.5609 14.8311C25.2771 14.4763 24.7802 13.873 24.4963 13.4827C23.9995 12.8439 23.9641 12.9504 24.1415 15.0796Z" fill="#101010"/>
<path d="M124.817 22.5672C124.533 22.993 124.142 23.206 123.823 23.0995C123.539 22.993 123.362 23.0285 123.468 23.1705C123.539 23.3124 123.042 23.8447 122.333 24.306C121.623 24.8029 120.771 25.4416 120.487 25.7255C120.203 26.0094 119.742 26.2933 119.458 26.3643C119.174 26.4352 118.678 26.7901 118.323 27.1805C118.003 27.5353 117.577 27.8547 117.365 27.8547C117.187 27.8547 116.903 28.1031 116.797 28.4225C116.69 28.7064 116.442 28.8838 116.3 28.7773C116.123 28.6709 115.732 28.8838 115.413 29.2032C114.526 30.1258 113.816 30.6936 113.426 30.6936C113.248 30.6936 113.035 30.942 112.893 31.2259C112.787 31.5098 112.467 31.7582 112.219 31.7582C111.829 31.7582 111.687 32.5034 111.651 35.2004C111.474 43.3623 110.232 49.5724 107.996 53.2275C106.861 55.1083 106.861 55.1083 110.196 52.1984C117.542 45.7754 122.758 36.3715 124.923 25.7965C125.597 22.4962 125.562 21.3607 124.817 22.5672Z" fill="#101010"/>
<path d="M89.2237 22.993C89.6495 23.5253 89.6495 23.5963 89.0817 23.3834C88.372 23.0995 86.3493 23.0995 80.565 23.3834L76.6615 23.5608L76.4485 31.1194C76.0937 43.8591 75.8098 61.4249 75.9872 60.5023C78.9681 45.5979 82.0199 37.1167 88.2301 26.6127C89.9689 23.6673 90.0044 23.4899 89.4011 22.9221C88.7978 22.3898 88.7978 22.3898 89.2237 22.993Z" fill="#101010"/>
<path d="M66.0155 23.8802C65.9446 23.9512 64.5606 24.0931 62.9637 24.1641C61.3313 24.2706 59.9119 24.4125 59.8409 24.519C59.7699 24.5899 59.8764 24.8383 60.0538 25.0867C60.2667 25.3352 61.3313 27.145 62.3959 29.0967C67.7899 38.8555 71.1256 48.7917 73.2548 61.212C73.5032 62.7734 73.5387 62.2766 73.4322 58.728C73.3612 56.2794 73.1128 47.5142 72.8999 39.2104C72.687 30.9065 72.4741 24.0576 72.3676 23.9867C72.1902 23.8092 66.193 23.7028 66.0155 23.8802Z" fill="#101010"/>
<path d="M107.109 34.7036C106.967 34.9875 106.257 35.5553 105.583 36.0521C104.909 36.5134 103.951 37.2586 103.454 37.7199C102.957 38.1458 102.141 38.7136 101.609 38.962C101.041 39.1749 100.615 39.6007 100.615 39.8136C100.615 40.062 100.402 40.2395 100.189 40.1685C99.8342 40.133 99.6568 41.7299 99.5148 46.84C99.3729 50.5306 99.089 54.2566 98.8761 55.0728C98.3083 57.2375 96.9243 60.2184 95.6468 62.0992C95.008 63.0218 94.5822 63.8025 94.6887 63.909C94.9371 64.1929 99.089 60.8926 100.508 59.2957C104.625 54.5405 106.79 47.9401 107.57 37.507C107.783 34.3487 107.712 33.7455 107.109 34.7036Z" fill="#101010"/>
<path d="M43.3042 39.7072C43.872 48.7562 46.498 55.6406 51.1112 60.2539C53.4888 62.6315 57.5343 65.3639 55.831 63.4122C54.6954 62.1701 52.992 58.9054 52.1404 56.3149C51.4661 54.3986 51.1822 52.5533 51.0403 49.7144C50.8983 47.4432 50.6499 45.6689 50.437 45.527C50.2241 45.385 50.0467 45.1011 50.0467 44.8882C50.0467 44.7108 49.9047 44.5333 49.6918 44.4979C49.3014 44.4979 48.2723 42.7235 48.3788 42.2977C48.4143 42.1203 48.3433 42.0848 48.2014 42.1558C48.0239 42.2622 47.7045 42.1203 47.4561 41.8364C47.2077 41.5525 47.1013 41.3396 47.2077 41.3396C47.3497 41.3396 46.9593 40.8428 46.3561 40.2395C45.7528 39.6362 45.327 38.9975 45.4689 38.82C45.5754 38.6426 45.4689 38.5361 45.185 38.5716C44.9366 38.6426 44.7592 38.4652 44.8301 38.2168C44.8656 38.0038 44.7237 37.7909 44.5108 37.7909C44.2624 37.7909 43.872 37.507 43.5881 37.1522C43.1268 36.6199 43.0913 36.9392 43.3042 39.7072Z" fill="#101010"/>
<path d="M93.5176 46.3432C93.5176 46.5206 93.3757 46.6271 93.1982 46.5206C93.0208 46.4141 92.2401 47.0174 91.4594 47.8691C89.5431 49.9628 88.6915 52.7662 88.2301 58.7989C87.7688 64.2638 87.272 66.3575 85.7106 68.7706L84.646 70.474L85.7461 69.8352C87.8043 68.6642 90.7142 65.4704 91.7788 63.1638C92.3466 61.9572 93.0563 59.8635 93.3047 58.515C93.9435 55.3922 94.3338 45.9528 93.8725 45.9528C93.6596 45.9528 93.5176 46.1302 93.5176 46.3432Z" fill="#101010"/>
<path d="M56.6471 52.0565C56.8955 58.1247 57.2859 60.0055 58.8473 63.2702C59.8764 65.4349 63.2831 69.09 65.1994 70.1191C65.9801 70.545 65.9801 70.5449 65.3768 69.6933C63.7444 67.4576 62.9992 65.222 62.6443 61.3539C62.0056 54.8599 61.6862 53.192 60.9055 52.3049C60.5152 51.8436 59.8764 51.0629 59.486 50.6015C59.0602 50.1402 58.7408 49.6434 58.7408 49.5369C58.7053 49.4305 58.2085 48.7208 57.5698 47.9755L56.4342 46.6625L56.6471 52.0565Z" fill="#101010"/>
<path d="M137.521 79.665C134.185 80.2328 132.162 81.6522 130.672 84.4557C129.998 85.6622 129.891 86.4429 129.891 89.9561C129.891 93.4692 129.998 94.2499 130.672 95.4565C132.446 98.7567 134.824 99.9988 139.295 99.9633C140.963 99.9633 142.808 99.7858 143.376 99.6084C144.05 99.431 144.654 99.431 145.044 99.6794C145.363 99.8923 145.718 99.9633 145.789 99.8923C145.896 99.7858 146.073 98.4019 146.18 96.7695C146.499 93.2918 145.967 92.9015 144.689 95.6339C142.56 100.141 135.888 99.7858 133.582 95.0306C132.588 92.9724 132.269 88.9625 132.908 86.1235C133.475 83.5685 135.605 81.2619 137.805 80.907C141.14 80.3747 143.66 81.5813 144.76 84.2782C145.576 86.3364 146.038 86.0526 146.038 83.462C146.038 79.9844 145.931 79.8424 143.802 79.8069C142.773 79.8069 141.318 79.7005 140.537 79.594C139.756 79.4876 138.408 79.523 137.521 79.665Z" fill="#101010"/>
<path d="M10.0179 80.8006C9.73396 81.4393 8.03061 85.7687 6.2208 90.3819C2.99153 98.6503 2.88507 98.8277 1.89145 98.8277C1.25269 98.8277 0.897827 99.0051 0.897827 99.36C0.897827 99.7858 1.46561 99.8923 3.91418 99.8923C6.36275 99.8923 6.93053 99.7858 6.93053 99.36C6.93053 99.0051 6.57567 98.8277 5.86594 98.8277C4.55294 98.8277 4.55294 98.5083 5.65302 95.7759L6.5047 93.6822H13.7439L14.5956 95.9533C15.0569 97.1953 15.4473 98.3309 15.4473 98.5083C15.4473 98.6857 14.8795 98.8277 14.2053 98.8277C13.3536 98.8277 12.9632 99.0051 12.9632 99.36C12.9632 99.7858 13.6375 99.8923 16.8668 99.8923C20.0251 99.8923 20.7703 99.7858 20.7703 99.3955C20.7703 99.0761 20.3444 98.8277 19.6347 98.7567L18.4991 98.6503L14.9505 89.1754C12.9278 83.8524 11.1889 79.665 10.9405 79.665C10.6921 79.665 10.2663 80.1973 10.0179 80.8006ZM11.6857 87.6494C12.3955 89.6012 12.9632 91.411 12.9632 91.6239C12.9632 91.9433 12.147 92.0853 10.1243 92.0853C8.56291 92.0853 7.2854 91.9788 7.2854 91.8368C7.2854 91.411 10.2308 83.8879 10.3372 83.9943C10.3727 84.0653 11.0115 85.6977 11.6857 87.6494Z" fill="#101010"/>
<path d="M22.0478 81.5103C21.7284 84.3492 21.7994 85.3428 22.2962 85.3428C22.5446 85.3428 22.9705 84.6686 23.2543 83.8524C23.9286 81.9716 25.0996 81.1554 27.3353 81.0135L29.1096 80.907V98.6503L27.7966 98.7567C26.9095 98.8277 26.4481 99.0406 26.4481 99.3955C26.4481 99.7858 27.2288 99.8923 30.5291 99.8923C33.9358 99.8923 34.61 99.7858 34.61 99.36C34.61 98.9696 34.2197 98.8277 33.1906 98.8277H31.7711V89.9916C31.7711 85.0944 31.8776 81.049 32.055 80.978C32.5873 80.6586 36.065 81.3329 36.5973 81.8652C36.8812 82.149 37.3425 83.0362 37.6264 83.7814C37.8748 84.5621 38.3716 85.2364 38.7265 85.3073C39.2588 85.4138 39.2942 85.2364 39.1168 84.0653C38.9749 83.2846 38.8684 82.0071 38.8684 81.1554V79.665H22.2962L22.0478 81.5103Z" fill="#101010"/>
<path d="M40.9976 80.1618C40.9976 80.4812 41.4234 80.7296 42.1686 80.8006L43.3042 80.907L43.4106 89.8496L43.4816 98.8277H42.2396C41.3524 98.8277 40.9976 98.9696 40.9976 99.36C40.9976 99.8213 41.9557 99.8923 48.3788 99.8213L55.7245 99.7149L55.8309 96.5921C55.9019 94.108 55.8309 93.5047 55.4406 93.5047C55.1212 93.5047 54.8373 94.037 54.6954 94.9597C54.234 97.7986 51.5725 99.1826 47.3851 98.7567L46.1431 98.6503L46.0366 89.9916C45.9657 83.2846 46.0721 81.2619 46.3915 81.0135C46.6399 80.8715 47.4561 80.7296 48.2013 80.7296C49.124 80.7296 49.5143 80.5876 49.5143 80.1973C49.5143 79.736 48.8046 79.665 45.2559 79.665C41.7783 79.665 40.9976 79.7714 40.9976 80.1618Z" fill="#101010"/>
<path d="M66.4414 80.8006C66.1575 81.4393 64.4541 85.7687 62.6443 90.3819C59.4151 98.6503 59.3086 98.8277 58.315 98.8277C57.6762 98.8277 57.3214 99.0051 57.3214 99.36C57.3214 99.7858 57.8891 99.8923 60.3377 99.8923C62.7863 99.8923 63.3541 99.7858 63.3541 99.36C63.3541 99.0051 62.9992 98.8277 62.2895 98.8277C60.9765 98.8277 60.9765 98.5083 62.0765 95.7759L62.9282 93.6822H70.1675L71.0191 95.9533C71.4805 97.1953 71.8708 98.3309 71.8708 98.5083C71.8708 98.6857 71.303 98.8277 70.6288 98.8277C69.7771 98.8277 69.3868 99.0051 69.3868 99.36C69.3868 99.7858 70.061 99.8923 73.2903 99.8923C76.4486 99.8923 77.1938 99.7858 77.1938 99.3955C77.1938 99.0761 76.768 98.8277 76.0582 98.7567L74.9227 98.6503L71.374 89.1754C69.3513 83.8524 67.6124 79.665 67.364 79.665C67.1156 79.665 66.6898 80.1973 66.4414 80.8006ZM68.1092 87.6494C68.819 89.6012 69.3868 91.411 69.3868 91.6239C69.3868 91.9433 68.5706 92.0853 66.5478 92.0853C64.9864 92.0853 63.7089 91.9788 63.7089 91.8368C63.7089 91.411 66.6543 83.8879 66.7608 83.9943C66.7962 84.0653 67.435 85.6977 68.1092 87.6494Z" fill="#101010"/>
<path d="M79.323 80.1618C79.323 80.4457 79.6779 80.7296 80.1392 80.8006L80.9199 80.907L81.0263 89.8496L81.0973 98.8277H80.2102C79.6424 98.8277 79.323 99.0406 79.323 99.36C79.323 99.7858 79.8908 99.8923 82.1619 99.8923C84.4331 99.8923 85.0008 99.7858 85.0008 99.36C85.0008 99.0051 84.6105 98.8277 83.7588 98.8277H82.5168V90.098C82.5168 85.3073 82.6587 81.4748 82.8007 81.5813C82.9426 81.6522 85.7106 85.8396 88.9044 90.8077C92.1336 95.8113 94.9725 99.8923 95.1855 99.8923C95.5403 99.8923 95.6468 97.6566 95.7178 90.3819L95.8242 80.907L96.8178 80.8006C97.3856 80.7296 97.776 80.5167 97.6695 80.2683C97.5985 79.9844 96.4985 79.8069 94.8306 79.736C92.5595 79.665 92.0981 79.736 92.0981 80.1973C92.0981 80.5521 92.453 80.7296 93.1627 80.7296H94.2273V87.472C94.2273 91.1626 94.1918 94.2144 94.1209 94.2144C94.0499 94.2144 91.9562 90.9497 89.4012 86.9397L84.8234 79.7005L82.0909 79.665C79.9263 79.665 79.323 79.7714 79.323 80.1618Z" fill="#101010"/>
<path d="M99.7632 81.5103C99.4438 84.3492 99.5148 85.3428 100.012 85.3428C100.26 85.3428 100.686 84.6686 100.97 83.8524C101.644 81.9716 102.815 81.1554 105.051 81.0135L106.825 80.907V98.6503L105.512 98.7567C104.625 98.8277 104.164 99.0406 104.164 99.3955C104.164 99.7858 104.944 99.8923 108.244 99.8923C111.651 99.8923 112.325 99.7858 112.325 99.36C112.325 98.9696 111.935 98.8277 110.906 98.8277H109.486V89.9916C109.486 85.0944 109.593 81.049 109.77 80.978C110.303 80.6586 113.78 81.3329 114.313 81.8652C114.597 82.149 115.058 83.0362 115.342 83.7814C115.59 84.5621 116.087 85.2364 116.442 85.3073C116.974 85.4138 117.01 85.2364 116.832 84.0653C116.69 83.2846 116.584 82.0071 116.584 81.1554V79.665H100.012L99.7632 81.5103Z" fill="#101010"/>
<path d="M119.068 80.1618C119.068 80.4812 119.494 80.7296 120.239 80.8006L121.374 80.907L121.481 89.8496L121.552 98.8277H120.31C119.458 98.8277 119.068 99.0051 119.068 99.36C119.068 99.7858 119.742 99.8923 122.971 99.8923C126.13 99.8923 126.875 99.7858 126.875 99.3955C126.875 99.0406 126.414 98.8277 125.562 98.7567L124.213 98.6503V80.907L125.562 80.8006C126.414 80.7296 126.875 80.5167 126.768 80.2683C126.697 79.9844 125.384 79.8069 122.865 79.736C119.707 79.665 119.068 79.736 119.068 80.1618Z" fill="#101010"/>
<path d="M30.8129 106.635C28.3998 107.628 27.903 112.738 30.1032 114.264C30.8839 114.797 32.3388 114.974 33.3325 114.584C33.7583 114.406 33.9003 113.874 33.9003 112.455C33.9003 110.574 33.9003 110.538 32.8357 110.538C32.2679 110.538 31.7711 110.68 31.7711 110.893C31.7711 111.071 32.0904 111.248 32.4808 111.248C33.5099 111.248 33.5099 113.59 32.4808 113.909C30.9549 114.406 29.6419 112.916 29.6419 110.609C29.6419 108.161 31.3807 106.741 33.226 107.699C33.7938 108.019 33.9003 107.948 33.9003 107.344C33.9003 106.954 33.6873 106.635 33.4744 106.635C33.226 106.635 32.6937 106.564 32.3034 106.457C31.913 106.386 31.2388 106.457 30.8129 106.635Z" fill="#101010"/>
<path d="M69.4932 106.635C67.4705 107.451 66.6898 111.603 68.1802 113.626C68.819 114.442 69.2093 114.619 70.4869 114.619C71.6934 114.619 72.0483 114.477 72.1547 113.98C72.2612 113.413 72.1902 113.377 71.5869 113.697C70.5223 114.264 70.1675 114.193 69.2093 113.2C68.0383 112.064 67.9673 109.651 69.1029 108.232C69.7416 107.415 70.061 107.309 71.0546 107.451C72.4031 107.699 72.758 106.848 71.445 106.493C70.4514 106.244 70.4869 106.244 69.4932 106.635Z" fill="#101010"/>
<path d="M75.1711 106.635C73.1484 107.451 72.3677 111.603 73.8581 113.626C74.7807 114.868 76.697 115.151 77.8681 114.193C78.8972 113.342 79.465 110.893 78.9681 109.19C78.5423 107.557 78.2939 107.203 77.3003 106.67C76.4131 106.209 76.2357 106.209 75.1711 106.635ZM77.3713 107.841C77.8326 108.161 78.081 108.906 78.1874 110.29C78.3294 112.064 78.2584 112.348 77.4422 113.164C76.3067 114.3 75.9518 114.3 74.8872 113.2C73.7161 112.064 73.6452 109.651 74.7453 108.267C75.5614 107.238 76.3776 107.096 77.3713 107.841Z" fill="#101010"/>
<path d="M88.5495 106.741C87.8752 107.061 87.6268 107.522 87.5558 108.48C87.4494 109.616 87.6268 109.899 88.8688 110.929C89.7915 111.674 90.3238 112.384 90.3238 112.88C90.3238 113.874 89.2237 114.3 88.1946 113.732C87.3074 113.271 86.9526 113.448 87.2365 114.264C87.5913 115.151 90.1464 114.974 90.8206 114.016C91.7432 112.738 91.4948 111.922 89.7205 110.29C88.3011 109.012 88.0881 108.657 88.4075 108.125C88.6914 107.735 89.2237 107.557 89.9334 107.557C91.1045 107.628 91.4948 106.883 90.4657 106.493C89.7205 106.209 89.5786 106.209 88.5495 106.741Z" fill="#101010"/>
<path d="M126.165 106.67C125.136 107.096 124.746 107.593 124.746 108.693C124.746 109.474 125.42 110.29 127.159 111.674C127.585 112.029 127.94 112.525 127.94 112.845C127.94 113.661 126.697 114.158 125.633 113.732C124.817 113.413 124.71 113.448 124.817 113.98C124.959 114.868 127.301 115.045 128.081 114.264C129.253 113.093 128.756 111.248 126.981 110.148C126.023 109.545 125.81 109.19 125.881 108.445C125.988 107.628 126.13 107.522 127.336 107.557C128.223 107.593 128.649 107.451 128.649 107.132C128.649 106.848 128.507 106.635 128.33 106.635C128.152 106.635 127.798 106.564 127.514 106.493C127.265 106.386 126.662 106.493 126.165 106.67Z" fill="#101010"/>
<path d="M138.231 106.741C137.556 107.061 137.308 107.522 137.237 108.48C137.13 109.616 137.308 109.899 138.55 110.929C139.473 111.674 140.005 112.384 140.005 112.88C140.005 113.874 138.905 114.3 137.876 113.732C136.989 113.235 136.705 113.413 137.024 114.229C137.379 115.151 139.827 115.01 140.502 114.016C141.424 112.738 141.176 111.922 139.402 110.29C137.982 109.012 137.769 108.657 138.089 108.125C138.373 107.735 138.905 107.557 139.615 107.557C140.786 107.628 141.176 106.883 140.147 106.493C139.402 106.209 139.26 106.209 138.231 106.741Z" fill="#101010"/>
<path d="M1.60754 110.68C1.60754 115.506 2.2463 116.323 2.38825 111.674L2.49471 108.586L3.48833 111.496C4.05611 113.129 4.6239 114.513 4.80133 114.619C5.08522 114.797 6.29176 111.993 6.78857 110.006C7.2499 108.09 7.64025 108.835 7.64025 111.745C7.64025 113.555 7.78219 114.797 7.99511 114.797C8.20803 114.797 8.34998 113.2 8.34998 110.68C8.34998 107.061 8.27901 106.599 7.7822 106.706C7.39184 106.777 6.78857 107.912 6.11433 109.758C5.54654 111.354 4.94327 112.596 4.83681 112.49C4.73036 112.348 4.19806 111.035 3.70125 109.545C3.09798 107.77 2.56568 106.777 2.21081 106.706C1.67852 106.599 1.60754 107.061 1.60754 110.68Z" fill="#101010"/>
<path d="M11.7922 106.883C11.5793 107.238 9.41461 114.264 9.41461 114.584C9.41461 115.258 10.1953 114.619 10.6212 113.555C11.0825 112.525 11.3309 112.313 12.2535 112.313C13.1762 112.313 13.4246 112.525 13.8859 113.555C14.1698 114.229 14.5602 114.797 14.7376 114.797C15.2344 114.797 15.1989 114.69 13.9214 110.574C12.8568 107.203 12.2535 106.102 11.7922 106.883ZM12.7149 109.367C12.8213 109.935 13.0342 110.645 13.1407 110.964C13.3536 111.496 13.2117 111.603 12.2535 111.603C11.3664 111.603 11.1889 111.496 11.3309 110.964C11.4373 110.645 11.6148 109.935 11.7567 109.367C11.8632 108.835 12.1116 108.409 12.2535 108.409C12.3955 108.409 12.6084 108.835 12.7149 109.367Z" fill="#101010"/>
<path d="M16.157 110.716C16.157 115.613 16.7958 116.252 16.9377 111.496L17.0442 108.232L18.7476 111.496C21.0542 116.039 21.48 115.932 21.48 110.716C21.48 105.819 20.8413 105.18 20.6993 109.899L20.5929 113.2L18.8895 109.899C16.5829 105.393 16.157 105.499 16.157 110.716Z" fill="#101010"/>
<path d="M24.3189 107.948C24.1415 108.693 23.5737 110.538 23.1124 112.029C22.4736 114.051 22.3672 114.797 22.6865 114.797C22.9349 114.797 23.2898 114.264 23.4672 113.626C23.7866 112.596 23.9286 112.49 25.2061 112.49C26.4836 112.49 26.6255 112.596 26.9449 113.626C27.1224 114.264 27.4772 114.797 27.7256 114.797C28.116 114.797 28.116 114.513 27.7256 113.271C27.4772 112.454 26.9094 110.609 26.4481 109.19C25.5609 106.315 24.8867 105.925 24.3189 107.948ZM26.0578 110.964C26.0932 111.425 25.8094 111.603 25.2061 111.603C24.2125 111.603 24.1415 111.354 24.7448 109.367L25.1706 107.948L25.5964 109.154C25.8448 109.828 26.0578 110.645 26.0578 110.964Z" fill="#101010"/>
<path d="M35.3197 110.716V114.797H37.094C38.4425 114.797 38.8684 114.655 38.8684 114.264C38.8684 113.909 38.478 113.732 37.6263 113.732C36.4198 113.732 36.3843 113.697 36.3843 112.313C36.3843 110.964 36.4553 110.893 37.4489 110.893C38.0522 110.893 38.5135 110.716 38.5135 110.538C38.5135 110.325 38.0522 110.183 37.4489 110.183C36.4553 110.183 36.3843 110.112 36.3843 108.764C36.3843 107.38 36.4198 107.344 37.6263 107.344C38.3006 107.344 38.8684 107.167 38.8684 106.99C38.8684 106.777 38.0876 106.635 37.094 106.635H35.3197V110.716Z" fill="#101010"/>
<path d="M40.2878 110.68C40.2878 115.506 40.9266 116.323 41.0685 111.674L41.175 108.586L42.1686 111.496C42.7364 113.129 43.3042 114.513 43.4816 114.619C43.7655 114.797 44.9721 111.993 45.4689 110.006C45.9302 108.09 46.3205 108.835 46.3205 111.745C46.3205 113.555 46.4625 114.797 46.6754 114.797C46.8883 114.797 47.0303 113.2 47.0303 110.68C47.0303 107.061 46.9593 106.599 46.4625 106.706C46.0721 106.777 45.4689 107.912 44.7946 109.758C44.2268 111.354 43.6236 112.596 43.5171 112.49C43.4107 112.348 42.8784 111.035 42.3815 109.545C41.7783 107.77 41.246 106.777 40.8911 106.706C40.3588 106.599 40.2878 107.061 40.2878 110.68Z" fill="#101010"/>
<path d="M48.4497 110.716V114.797H50.224C51.5725 114.797 51.9984 114.655 51.9984 114.264C51.9984 113.909 51.608 113.732 50.7563 113.732C49.5498 113.732 49.5143 113.697 49.5143 112.313C49.5143 110.964 49.5853 110.893 50.5789 110.893C51.1822 110.893 51.6435 110.716 51.6435 110.538C51.6435 110.325 51.1822 110.183 50.5789 110.183C49.5853 110.183 49.5143 110.112 49.5143 108.764C49.5143 107.38 49.5498 107.344 50.7563 107.344C51.4306 107.344 51.9984 107.167 51.9984 106.99C51.9984 106.777 51.2177 106.635 50.224 106.635H48.4497V110.716Z" fill="#101010"/>
<path d="M53.4178 110.716C53.4178 115.613 54.0566 116.252 54.1985 111.496L54.305 108.232L56.0084 111.496C58.315 116.039 58.7408 115.932 58.7408 110.716C58.7408 105.819 58.1021 105.18 57.9601 109.899L57.8537 113.2L56.1503 109.899C53.8437 105.393 53.4178 105.499 53.4178 110.716Z" fill="#101010"/>
<path d="M59.4506 106.954C59.4506 107.132 59.8764 107.344 60.4442 107.415L61.4023 107.522L61.5088 111.141C61.6507 116.003 62.2895 115.932 62.2895 111.071V107.344H63.1766C63.6735 107.344 64.0638 107.167 64.0638 106.99C64.0638 106.777 63.0702 106.635 61.7572 106.635C60.4797 106.635 59.4506 106.777 59.4506 106.954Z" fill="#101010"/>
<path d="M80.3876 110.716C80.3876 114.122 80.494 114.797 80.9199 114.797C81.3457 114.797 81.4522 114.193 81.4877 111.496V108.232L83.1555 111.496C84.0782 113.306 85.0008 114.797 85.2492 114.797C85.6041 114.797 85.7105 113.803 85.7105 110.716C85.7105 108.232 85.5686 106.635 85.3557 106.635C85.1428 106.635 85.0008 107.983 84.9653 109.899V113.2L83.2975 109.899C82.1619 107.628 81.4522 106.635 81.0263 106.635C80.4585 106.635 80.3876 107.061 80.3876 110.716Z" fill="#101010"/>
<path d="M92.453 109.651C92.453 113.022 92.9143 114.371 94.1209 114.655C95.3984 114.974 96.5339 114.548 96.9953 113.555C97.4921 112.49 97.5631 106.635 97.1017 106.635C96.9243 106.635 96.7114 108.09 96.6404 109.864C96.5694 112.561 96.4275 113.164 95.8597 113.59C95.008 114.193 94.8661 114.193 94.0854 113.626C93.5531 113.235 93.4111 112.49 93.2337 109.899C93.1627 108.09 92.9143 106.635 92.7724 106.635C92.5949 106.635 92.453 107.983 92.453 109.651Z" fill="#101010"/>
<path d="M98.8406 110.716V114.797H100.615C101.963 114.797 102.389 114.655 102.389 114.264C102.389 113.909 101.999 113.732 101.147 113.732H99.9052V110.183C99.9052 107.273 99.7987 106.635 99.3729 106.635C98.947 106.635 98.8406 107.309 98.8406 110.716Z" fill="#101010"/>
<path d="M102.034 106.99C102.034 107.167 102.531 107.344 103.099 107.344H104.164V111.071C104.164 113.306 104.305 114.797 104.518 114.797C104.731 114.797 104.873 113.306 104.873 111.071V107.344H105.76C106.257 107.344 106.648 107.167 106.648 106.99C106.648 106.777 105.654 106.635 104.341 106.635C103.028 106.635 102.034 106.777 102.034 106.99Z" fill="#101010"/>
<path d="M108.422 107.948C108.244 108.693 107.677 110.538 107.215 112.029C106.577 114.051 106.47 114.797 106.79 114.797C107.038 114.797 107.393 114.264 107.57 113.626C107.89 112.596 108.032 112.49 109.309 112.49C110.587 112.49 110.729 112.596 111.048 113.626C111.225 114.264 111.58 114.797 111.829 114.797C112.219 114.797 112.219 114.513 111.829 113.271C111.58 112.454 111.012 110.609 110.551 109.19C109.664 106.315 108.99 105.925 108.422 107.948ZM110.161 110.964C110.196 111.425 109.912 111.603 109.309 111.603C108.315 111.603 108.244 111.354 108.848 109.367L109.274 107.948L109.699 109.154C109.948 109.828 110.161 110.645 110.161 110.964Z" fill="#101010"/>
<path d="M113.035 110.716C113.035 114.122 113.142 114.797 113.567 114.797C113.993 114.797 114.1 114.193 114.135 111.496V108.232L115.803 111.496C116.726 113.306 117.648 114.797 117.897 114.797C118.252 114.797 118.358 113.803 118.358 110.716C118.358 108.232 118.216 106.635 118.003 106.635C117.79 106.635 117.648 107.983 117.613 109.899V113.2L115.945 109.899C114.809 107.628 114.1 106.635 113.674 106.635C113.106 106.635 113.035 107.061 113.035 110.716Z" fill="#101010"/>
<path d="M119.423 106.99C119.423 107.167 119.813 107.344 120.31 107.344H121.197V111.071C121.197 114.158 121.304 114.797 121.729 114.797C122.155 114.797 122.262 114.158 122.262 111.071V107.344H123.149C123.646 107.344 124.036 107.167 124.036 106.99C124.036 106.777 123.042 106.635 121.729 106.635C120.416 106.635 119.423 106.777 119.423 106.99Z" fill="#101010"/>
<path d="M132.553 110.716V114.797H134.327C135.676 114.797 136.101 114.655 136.101 114.264C136.101 113.874 135.711 113.732 134.646 113.732H133.227L133.333 112.384C133.44 111.177 133.546 111.071 134.611 110.964C136.137 110.822 136.066 110.183 134.504 110.183C133.298 110.183 133.262 110.148 133.262 108.764C133.262 107.38 133.298 107.344 134.504 107.344C135.179 107.344 135.747 107.167 135.747 106.99C135.747 106.777 135.037 106.635 134.15 106.635H132.553V110.716Z" fill="#101010"/>
<path d="M141.424 106.954C141.424 107.132 141.85 107.344 142.418 107.415L143.376 107.522L143.483 111.141C143.624 116.003 144.263 115.932 144.263 111.071V107.344H145.15C145.647 107.344 146.038 107.167 146.038 106.99C146.038 106.777 145.044 106.635 143.731 106.635C142.453 106.635 141.424 106.777 141.424 106.954Z" fill="#101010"/>
<path d="M146.038 114.264C146.038 114.548 146.286 114.797 146.57 114.797C146.854 114.797 147.102 114.548 147.102 114.264C147.102 113.98 146.854 113.732 146.57 113.732C146.286 113.732 146.038 113.98 146.038 114.264Z" fill="#101010"/>
</g>
<defs>
<clipPath id="clip0_1_190">
<rect width="146.204" height="128" fill="white" transform="translate(0.897827)"/>
</clipPath>
</defs>
</svg>
